<svg xmlns="http://www.w3.org/2000/svg" viewBox="0 0 1000 1000" style="enable-background:new 0 0 1000 1000" xml:space="preserve"><style>.st1{fill:#e6e6e6}.st2{fill:#b3b3b3;stroke:#000;stroke-width:33.9138;stroke-miterlimit:10}</style><switch><g><g id="Layer_2"><path d="M662.9 452.8c-213.7-125-332.3-90.7-332.3-90.7-21.4-.2-282 60.8-282 60.8 6.6 12.9 8.6 46.8 8.6 46.8 6.7 62.5 40.7 93.7 40.7 93.7 21.9 28.6 45.9 33.2 45.9 33.2s681.9 2.5 738.5 0c56.6-2.5 69.1-33.2 69.1-33.2-23.9-107.8-288.5-110.6-288.5-110.6z" style="fill:blue"/><path class="st1" d="M626.7 451.6 391.9 435l-61.3-53.4s95.9-34.3 296.1 70zM345.2 428.9l-41.7-37.2s-38.5 4.7-79.9 19l121.6 18.2z"/><circle class="st2" cx="221.4" cy="574" r="68.2"/><circle class="st2" cx="756.1" cy="574" r="68.2"/></g></g></switch></svg>